<svg width="1200" height="360" viewBox="0 0 1200 360" fill="none" xmlns="http://www.w3.org/2000/svg">
  <defs>
    <linearGradient id="bg" x1="0" y1="0" x2="1200" y2="360" gradientUnits="userSpaceOnUse">
      <stop stop-color="#0F172A"/>
      <stop offset="0.55" stop-color="#312E81"/>
      <stop offset="1" stop-color="#7C3AED"/>
    </linearGradient>
    <linearGradient id="pill" x1="0" y1="0" x2="1" y2="1">
      <stop stop-color="#F59E0B"/>
      <stop offset="1" stop-color="#EF4444"/>
    </linearGradient>
    <filter id="shadow" x="0" y="0" width="1200" height="360" filterUnits="userSpaceOnUse" color-interpolation-filters="sRGB">
      <feDropShadow dx="0" dy="12" stdDeviation="18" flood-opacity="0.18"/>
    </filter>
  </defs>
  <rect width="1200" height="360" rx="28" fill="url(#bg)"/>
  <circle cx="1040" cy="88" r="96" fill="#ffffff" fill-opacity="0.06"/>
  <circle cx="1110" cy="250" r="130" fill="#ffffff" fill-opacity="0.05"/>
  <circle cx="150" cy="70" r="70" fill="#ffffff" fill-opacity="0.04"/>
  <g filter="url(#shadow)">
    <rect x="66" y="70" width="168" height="44" rx="22" fill="url(#pill)"/>
  </g>
  <text x="92" y="99" fill="white" font-size="22" font-family="Arial, Helvetica, sans-serif" font-weight="700">OpenClaw Skill</text>
  <text x="66" y="175" fill="white" font-size="52" font-family="Arial, Helvetica, sans-serif" font-weight="800">volcano-tts-helper-public</text>
  <text x="66" y="220" fill="#E5E7EB" font-size="24" font-family="Arial, Helvetica, sans-serif">Volcano Engine / Doubao TTS workflow for OpenClaw</text>
  <text x="66" y="258" fill="#D1D5DB" font-size="22" font-family="Arial, Helvetica, sans-serif">音色映射 · 豆包 2.0 · 本地合成脚本 · 陪伴感语音</text>
  <g>
    <rect x="66" y="286" width="136" height="40" rx="20" fill="#ffffff" fill-opacity="0.12"/>
    <text x="96" y="312" fill="white" font-size="20" font-family="Arial, Helvetica, sans-serif">🗣️ Volcano TTS</text>
  </g>
  <g>
    <rect x="216" y="286" width="130" height="40" rx="20" fill="#ffffff" fill-opacity="0.12"/>
    <text x="247" y="312" fill="white" font-size="20" font-family="Arial, Helvetica, sans-serif">🎙️ Doubao 2.0</text>
  </g>
  <g>
    <rect x="360" y="286" width="156" height="40" rx="20" fill="#ffffff" fill-opacity="0.12"/>
    <text x="391" y="312" fill="white" font-size="20" font-family="Arial, Helvetica, sans-serif">💞 Companion Voice</text>
  </g>
</svg>
